<svg width="147" height="541" viewBox="0 0 147 541" fill="none" xmlns="http://www.w3.org/2000/svg">
<rect x="82.1957" y="173.57" width="22.4355" height="22.4355" stroke="#00FFAD" stroke-width="1.22376"/>
<rect x="82.1957" y="344.895" width="22.4355" height="22.4355" stroke="#00FFAD" stroke-width="1.22376"/>
<rect x="122.988" y="202.124" width="22.4355" height="22.4355" stroke="#00FFAD" stroke-width="1.22376"/>
<rect x="122.988" y="373.45" width="22.4355" height="22.4355" stroke="#00FFAD" stroke-width="1.22376"/>
<rect x="145.423" y="253.114" width="22.4355" height="22.4355" transform="rotate(-180 145.423 253.114)" fill="#00FFAD" stroke="#00FFAD" stroke-width="1.22376"/>
<rect x="145.423" y="424.44" width="22.4355" height="22.4355" transform="rotate(-180 145.423 424.44)" fill="#00FFAD" stroke="#00FFAD" stroke-width="1.22376"/>
<rect x="145.245" y="166.686" width="22.4355" height="22.4355" transform="rotate(-180 145.245 166.686)" stroke="#00FFAD" stroke-width="1.22376"/>
<rect x="145.423" y="338.777" width="22.4355" height="22.4355" transform="rotate(-180 145.423 338.777)" stroke="#00FFAD" stroke-width="1.22376"/>
<rect x="145.423" y="539.473" width="22.4355" height="22.4355" transform="rotate(-180 145.423 539.473)" stroke="#00FFAD" stroke-width="1.22376"/>
<rect x="145.423" y="510.103" width="22.4355" height="22.4355" transform="rotate(-180 145.423 510.103)" stroke="#00FFAD" stroke-width="1.22376"/>
<rect x="145.245" y="138.132" width="22.4355" height="22.4355" transform="rotate(-180 145.245 138.132)" stroke="white" stroke-width="1.22376"/>
<rect x="82.1957" y="0.611878" width="22.4355" height="22.4355" stroke="#00FFAD" stroke-width="1.22376"/>
<rect x="122.988" y="0.611878" width="22.4355" height="22.4355" stroke="#00FFAD" stroke-width="1.22376"/>
<rect x="63.8393" y="395.885" width="22.4355" height="22.4355" transform="rotate(-180 63.8393 395.885)" stroke="#00FFAD" stroke-width="1.22376"/>
<rect x="104.453" y="166.686" width="22.4355" height="22.4355" transform="rotate(-180 104.453 166.686)" stroke="#00FFAD" stroke-width="1.22376"/>
<rect x="104.631" y="338.777" width="22.4355" height="22.4355" transform="rotate(-180 104.631 338.777)" stroke="#00FFAD" stroke-width="1.22376"/>
<rect x="105.243" y="510.714" width="23.6593" height="23.6593" transform="rotate(-180 105.243 510.714)" fill="#00FFAD"/>
<rect x="64.2727" y="138.743" width="23.6593" height="23.6593" transform="rotate(-180 64.2727 138.743)" fill="#00FFAD"/>
<rect x="122.988" y="29.1662" width="22.4355" height="22.4355" fill="#00FFAD" stroke="#00FFAD" stroke-width="1.22376"/>
<rect x="41.4037" y="259.232" width="22.4355" height="22.4355" stroke="#00FFAD" stroke-width="1.22376"/>
<rect x="82.1957" y="401.188" width="22.4355" height="22.4355" stroke="#00FFAD" stroke-width="1.22376"/>
<rect x="40.7919" y="315.729" width="23.6593" height="23.6593" fill="#00FFAD"/>
<rect x="41.4037" y="487.667" width="22.4355" height="22.4355" stroke="white" stroke-width="1.22376"/>
<rect x="63.8393" y="80.1561" width="22.4355" height="22.4355" transform="rotate(-180 63.8393 80.1561)" stroke="#00FFAD" stroke-width="1.22376"/>
<rect x="122.988" y="259.232" width="22.4355" height="22.4355" stroke="white" stroke-width="1.22376"/>
<rect x="122.988" y="430.559" width="22.4355" height="22.4355" stroke="white" stroke-width="1.22376"/>
<rect x="41.4037" y="29.1662" width="63.2274" height="22.4355" stroke="white" stroke-width="1.22376"/>
<rect x="145.245" y="109.577" width="63.2274" height="22.4355" transform="rotate(-180 145.245 109.577)" stroke="#00FFAD" stroke-width="1.22376"/>
<rect x="104.631" y="253.114" width="63.2274" height="22.4355" transform="rotate(-180 104.631 253.114)" stroke="white" stroke-width="1.22376"/>
<rect x="63.8393" y="452.994" width="63.2274" height="22.4355" transform="rotate(-180 63.8393 452.994)" stroke="white" stroke-width="1.22376"/>
<rect x="82.1957" y="287.787" width="63.2274" height="22.4355" stroke="#00FFAD" stroke-width="1.22376"/>
<rect x="82.1957" y="459.113" width="63.2274" height="22.4355" stroke="#00FFAD" stroke-width="1.22376"/>
<rect x="0.611878" y="173.57" width="63.2274" height="22.4355" stroke="#00FFAD" stroke-width="1.22376"/>
</svg>
