<svg width="375" height="70" viewBox="0 0 375 70" fill="none" xmlns="http://www.w3.org/2000/svg">
<rect x="158.525" y="50.525" width="18.95" height="18.95" stroke="#00FFAD" stroke-width="1.05"/>
<rect x="295.525" y="50.525" width="18.95" height="18.95" stroke="#00FFAD" stroke-width="1.05"/>
<rect x="90" width="20" height="20" fill="#00FFAD"/>
<rect x="226" y="50" width="20" height="20" fill="#00FFAD"/>
<rect x="295.525" y="0.525" width="18.95" height="18.95" stroke="white" stroke-width="1.05"/>
<rect x="124.525" y="25.525" width="18.95" height="18.95" stroke="white" stroke-width="1.05"/>
<rect x="261.525" y="0.525" width="18.95" height="18.95" stroke="#00FFAD" stroke-width="1.05"/>
<rect x="329.525" y="0.525" width="18.95" height="18.95" stroke="#00FFAD" stroke-width="1.05"/>
<rect x="192.525" y="25.525" width="18.95" height="18.95" stroke="#00FFAD" stroke-width="1.05"/>
<rect x="295.525" y="25.525" width="18.95" height="18.95" stroke="#00FFAD" stroke-width="1.05"/>
<rect x="329.525" y="50.525" width="18.95" height="18.95" stroke="white" stroke-width="1.05"/>
<rect x="56.525" y="50.525" width="18.95" height="18.95" stroke="#00FFAD" stroke-width="1.05"/>
<rect x="56.525" y="25.525" width="18.95" height="18.95" stroke="#00FFAD" stroke-width="1.05"/>
<rect x="22.525" y="25.525" width="18.95" height="18.95" stroke="#00FFAD" stroke-width="1.05"/>
<rect x="56.525" y="0.525" width="18.95" height="18.95" stroke="#00FFAD" stroke-width="1.05"/>
<rect x="-12" y="25" width="20" height="20" fill="#00FFAD"/>
<rect x="383" y="45" width="20" height="20" transform="rotate(-180 383 45)" fill="#00FFAD"/>
<rect x="-12.475" y="0.525" width="53.95" height="18.95" stroke="white" stroke-width="1.05"/>
<rect x="226.525" y="25.525" width="53.95" height="18.95" stroke="white" stroke-width="1.05"/>
<rect x="90.525" y="50.525" width="53.95" height="18.95" stroke="white" stroke-width="1.05"/>
<rect x="158.525" y="0.525" width="53.95" height="18.95" stroke="#00FFAD" stroke-width="1.05"/>
<rect x="-46.475" y="50.525" width="53.95" height="18.95" stroke="#00FFAD" stroke-width="1.05"/>
</svg>
