<svg width="64" height="81" viewBox="0 0 64 81" fill="none" xmlns="http://www.w3.org/2000/svg">
<rect x="29.2954" y="41.3163" width="4.56711" height="4.57023" stroke="black"/>
<rect x="48.4923" y="41.3163" width="4.56711" height="4.57023" stroke="black"/>
<rect x="29.2954" y="61.4844" width="4.56711" height="4.57023" stroke="black"/>
<rect x="58.0908" y="41.3163" width="4.56711" height="4.57023" stroke="black"/>
<rect x="29.2534" y="20.9681" width="4.56711" height="4.57023" stroke="black"/>
<rect x="43.4189" y="38.9838" width="4.56711" height="4.57023" transform="rotate(-180 43.4189 38.9838)" stroke="black"/>
<rect x="62.6579" y="59.332" width="4.56711" height="4.57023" transform="rotate(-180 62.6579 59.332)" stroke="black"/>
<rect x="62.6159" y="38.9838" width="4.56711" height="4.57023" transform="rotate(-180 62.6159 38.9838)" fill="black" stroke="black"/>
<rect x="62.6579" y="79.5" width="4.56711" height="4.19449" transform="rotate(-180 62.6579 79.5)" stroke="black"/>
<rect x="62.6159" y="32.2611" width="4.56711" height="4.57023" transform="rotate(-180 62.6159 32.2611)" stroke="black"/>
<rect x="38.8939" y="0.595947" width="4.56711" height="4.57023" stroke="black"/>
<rect x="58.0908" y="0.595947" width="4.56711" height="4.57023" fill="black" stroke="black"/>
<rect x="33.8625" y="59.332" width="4.56711" height="4.57023" transform="rotate(-180 33.8625 59.332)" fill="black" stroke="black"/>
<rect x="24.764" y="53.1093" width="5.56711" height="5.57023" transform="rotate(-180 24.764 53.1093)" fill="black"/>
<rect x="24.264" y="45.8866" width="4.56711" height="4.57023" transform="rotate(-180 24.264 45.8866)" stroke="black"/>
<rect x="53.0594" y="52.6093" width="4.56711" height="4.57023" transform="rotate(-180 53.0594 52.6093)" stroke="black"/>
<rect x="43.461" y="52.6093" width="4.56711" height="4.57023" transform="rotate(-180 43.461 52.6093)" stroke="black"/>
<rect x="33.8205" y="32.2611" width="4.56711" height="4.57023" transform="rotate(-180 33.8205 32.2611)" stroke="black"/>
<rect x="53.0175" y="38.9838" width="4.56711" height="4.57023" transform="rotate(-180 53.0175 38.9838)" stroke="black"/>
<rect x="14.6656" y="59.332" width="4.56711" height="4.57023" transform="rotate(-180 14.6656 59.332)" fill="black" stroke="black"/>
<rect x="24.264" y="38.9838" width="4.56711" height="4.57023" transform="rotate(-180 24.264 38.9838)" stroke="black"/>
<rect x="53.5594" y="80" width="5.56711" height="5.19449" transform="rotate(-180 53.5594 80)" fill="black" stroke="black"/>
<rect x="62.6579" y="18.6116" width="4.56711" height="4.57023" transform="rotate(-180 62.6579 18.6116)" stroke="black"/>
<rect x="29.2954" y="68.207" width="4.56711" height="4.57023" stroke="black"/>
<rect x="19.6969" y="68.207" width="4.56711" height="4.57023" fill="black" stroke="black"/>
<rect x="14.6656" y="79.5" width="4.56711" height="4.19449" transform="rotate(-180 14.6656 79.5)" stroke="black"/>
<rect x="43.4189" y="32.2611" width="4.56711" height="4.57023" transform="rotate(-180 43.4189 32.2611)" fill="black" stroke="black"/>
<rect x="9.90649" y="0.5" width="4.75908" height="4.76231" stroke="black"/>
<rect x="19.6969" y="7.31873" width="4.56711" height="4.57023" stroke="black"/>
<rect x="58.0908" y="7.31873" width="4.56711" height="4.57023" fill="black" stroke="black"/>
<rect x="38.8519" y="20.9681" width="4.56711" height="4.57023" fill="black" stroke="black"/>
<rect x="38.8939" y="61.4844" width="4.56711" height="4.57023" stroke="black"/>
<rect x="43.461" y="18.6116" width="4.56711" height="4.57023" transform="rotate(-180 43.461 18.6116)" stroke="black"/>
<rect x="34.3625" y="19.1116" width="5.56711" height="5.57023" transform="rotate(-180 34.3625 19.1116)" fill="black"/>
<rect x="58.0908" y="68.207" width="4.56711" height="4.57023" stroke="black"/>
<rect x="24.264" y="18.6116" width="4.56711" height="4.57023" transform="rotate(-180 24.264 18.6116)" stroke="black"/>
<rect x="0.5" y="7.31873" width="14.1656" height="4.57023" fill="black" stroke="black"/>
<rect x="38.8939" y="7.31873" width="14.1656" height="4.57023" stroke="black"/>
<rect x="62.6159" y="25.5385" width="14.1656" height="4.57023" transform="rotate(-180 62.6159 25.5385)" stroke="black"/>
<rect x="24.222" y="32.2611" width="14.1656" height="4.57023" transform="rotate(-180 24.222 32.2611)" stroke="black"/>
<rect x="14.6656" y="45.8866" width="14.1656" height="4.57023" transform="rotate(-180 14.6656 45.8866)" stroke="black"/>
<rect x="53.0594" y="59.332" width="14.1656" height="4.57023" transform="rotate(-180 53.0594 59.332)" fill="black" stroke="black"/>
<rect x="10.0984" y="61.4844" width="14.1656" height="4.57023" stroke="black"/>
<rect x="48.4923" y="61.4844" width="14.1656" height="4.57023" fill="black" stroke="black"/>
<rect x="29.2954" y="74.9298" width="14.1656" height="4.19449" stroke="black"/>
</svg>
