<svg xmlns="http://www.w3.org/2000/svg" width="357" height="283" viewBox="0 0 357 283"><g fill="none" fill-rule="evenodd"><g fill="#33F1FF"><path d="M117.273 159L82 123h35.273zM117.273 240H82l35.273-36zM156.954 159h-35.273v-36h35.273zM236.319 159h-35.273v-36h35.273zM196.636 159h-35.273v-36h35.273zM156.954 240h-35.273v-36h35.273zM236.319 240h-35.273v-36h35.273zM196.636 240h-35.273v-36h35.273zM240.727 240v-36H276zM276 159h-35.273v-36zM276 199.5h-35.273v-36H276zM156.954 78h-35.273V42h35.273zM117.273 78H82l35.273-36zM236.319 78h-35.273V42h35.273zM196.636 78h-35.273V42h35.273zM240.727 78V42H276zM117.273 118.5H82v-36h35.273z"/></g></g></svg>
