<svg xmlns="http://www.w3.org/2000/svg" width="357" height="362" viewBox="0 0 357 362"><g fill="none" fill-rule="evenodd"><g fill="#00FFAD"><path d="M117.273 159L82 123h35.273zM117.273 240H82l35.273-36zM156.954 159h-35.273v-36h35.273zM236.319 159h-35.273v-36h35.273zM196.636 159h-35.273v-36h35.273zM156.954 240h-35.273v-36h35.273zM236.319 240h-35.273v-36h35.273zM196.636 240h-35.273v-36h35.273zM240.727 240v-36H276zM276 159h-35.273v-36zM276 199.5h-35.273v-36H276zM156.954 78h-35.273V42h35.273zM117.273 78H82l35.273-36zM236.319 78h-35.273V42h35.273zM196.636 78h-35.273V42h35.273zM240.727 78V42H276zM117.273 118.5H82v-36h35.273z"/></g><g fill="#FFF"><path d="M130.413 280h7.429v33.373h29.22L160.984 320H130.413zM37.78 303.871H21.647v-.004c-.105.003-.21.004-.316.004-6.461 0-11.699-5.344-11.699-11.936 0-6.591 5.238-11.935 11.699-11.935.106 0 .211.001.316.004V280h27.824l-8.22 7.742H21.322c-2.266 0-4.102 1.877-4.102 4.193 0 2.317 1.836 4.194 4.102 4.194h17.398v.039c6.017.492 10.75 5.63 10.75 11.897 0 6.591-5.238 11.935-11.699 11.935-.319 0-.635-.013-.948-.039V320H9l8.853-7.742H37.78c2.266 0 4.103-1.877 4.103-4.193 0-2.317-1.837-4.194-4.103-4.194zM76.663 280.007V280h26.559v.007c3.765.164 6.788 3.249 6.949 7.09h.007v25.161h-.007a7.7 7.7 0 0 1 .007.323c0 3.99-3.087 7.243-6.956 7.412V320h-26.56v-.007c-3.869-.169-6.955-3.423-6.955-7.412a7.7 7.7 0 0 1 .006-.323h-.006v-25.161h.006c.161-3.841 3.185-6.926 6.95-7.09zm4.98 7.094c-2.354.103-4.243 2.044-4.344 4.46h-.004v15.827h.004a4.875 4.875 0 0 0-.004.203c0 2.51 1.929 4.556 4.347 4.663v.004h16.6v-.004c2.418-.107 4.347-2.153 4.347-4.663 0-.068-.001-.136-.004-.203h.004v-15.827h-.004c-.1-2.416-1.99-4.357-4.343-4.46v-.004h-16.6v.004zM194.704 290.968v7.742h25.294v-7.742c0-2.494-1.981-4.516-4.426-4.516H199.13c-2.444 0-4.426 2.022-4.426 4.516zM219.998 320v-15.484h-25.294V320h-7.588v-32.258h.006a7.7 7.7 0 0 1-.006-.323c0-4.097 3.255-7.419 7.272-7.419.106 0 .211.002.316.007V280h25.927v.007c3.87.169 6.956 3.423 6.956 7.412a7.7 7.7 0 0 1-.007.323h.007V320h-7.589zM316.117 290.968v7.742h25.295v-7.742c0-2.494-1.982-4.516-4.427-4.516h-16.441c-2.445 0-4.427 2.022-4.427 4.516zM341.412 320v-15.484h-25.295V320h-7.588v-32.258h.007a7.7 7.7 0 0 1-.007-.323c0-4.097 3.256-7.419 7.272-7.419.106 0 .211.002.316.007V280h25.927v.007c3.87.169 6.956 3.423 6.956 7.412a7.7 7.7 0 0 1-.007.323H349V320h-7.588zM280.705 310.318V280h7.588v40h-7.588v-.067l-25.294-29.61V320h-7.589v-40h7.589z"/></g></g></svg>
