<svg width="43" height="46" viewBox="0 0 43 46" fill="none" xmlns="http://www.w3.org/2000/svg">
  <mask id="path-1-outside-1" maskUnits="userSpaceOnUse" x="0" y="11.1865" width="43" height="23" fill="black">
    <rect fill="white" y="11.1865" width="43" height="23"/>
    <path d="M7.65843 33.8136C4.13573 33.8136 1.86408 32.9307 1.19788 31.2799C0.440667 29.3952 1.87182 26.7718 5.22991 23.8893C8.53572 21.0535 13.3269 18.282 18.7242 16.0816C24.1216 13.8812 29.4744 12.5169 33.8124 12.2382C38.2163 11.9555 41.0592 12.8384 41.8184 14.7212C42.5775 16.6059 41.1444 19.2312 37.7864 22.1118C34.4805 24.9476 29.6894 27.721 24.292 29.9195C18.8947 32.118 13.538 33.4823 9.20385 33.761C8.66547 33.796 8.14839 33.8136 7.65843 33.8136ZM35.3288 12.5695C34.8537 12.5695 34.3566 12.5864 33.8376 12.6202C29.5422 12.895 24.2281 14.2495 18.8695 16.4344C13.5109 18.6192 8.75262 21.3751 5.48167 24.1855C2.30756 26.9141 0.876405 29.4478 1.55809 31.1318C2.23978 32.8157 5.01689 33.6401 9.17867 33.3731C13.4741 33.0963 18.7882 31.7418 24.1468 29.5589C29.5054 27.376 34.2598 24.624 37.5346 21.8155C40.7087 19.0869 42.1399 16.5532 41.4601 14.8674C40.8636 13.3881 38.6617 12.5773 35.3288 12.5773V12.5695Z"/>
  </mask>
  <path d="M7.65843 33.8136C4.13573 33.8136 1.86408 32.9307 1.19788 31.2799C0.440667 29.3952 1.87182 26.7718 5.22991 23.8893C8.53572 21.0535 13.3269 18.282 18.7242 16.0816C24.1216 13.8812 29.4744 12.5169 33.8124 12.2382C38.2163 11.9555 41.0592 12.8384 41.8184 14.7212C42.5775 16.6059 41.1444 19.2312 37.7864 22.1118C34.4805 24.9476 29.6894 27.721 24.292 29.9195C18.8947 32.118 13.538 33.4823 9.20385 33.761C8.66547 33.796 8.14839 33.8136 7.65843 33.8136ZM35.3288 12.5695C34.8537 12.5695 34.3566 12.5864 33.8376 12.6202C29.5422 12.895 24.2281 14.2495 18.8695 16.4344C13.5109 18.6192 8.75262 21.3751 5.48167 24.1855C2.30756 26.9141 0.876405 29.4478 1.55809 31.1318C2.23978 32.8157 5.01689 33.6401 9.17867 33.3731C13.4741 33.0963 18.7882 31.7418 24.1468 29.5589C29.5054 27.376 34.2598 24.624 37.5346 21.8155C40.7087 19.0869 42.1399 16.5532 41.4601 14.8674C40.8636 13.3881 38.6617 12.5773 35.3288 12.5773V12.5695Z" fill="white"/>
  <path d="M7.65843 33.8136C4.13573 33.8136 1.86408 32.9307 1.19788 31.2799C0.440667 29.3952 1.87182 26.7718 5.22991 23.8893C8.53572 21.0535 13.3269 18.282 18.7242 16.0816C24.1216 13.8812 29.4744 12.5169 33.8124 12.2382C38.2163 11.9555 41.0592 12.8384 41.8184 14.7212C42.5775 16.6059 41.1444 19.2312 37.7864 22.1118C34.4805 24.9476 29.6894 27.721 24.292 29.9195C18.8947 32.118 13.538 33.4823 9.20385 33.761C8.66547 33.796 8.14839 33.8136 7.65843 33.8136ZM35.3288 12.5695C34.8537 12.5695 34.3566 12.5864 33.8376 12.6202C29.5422 12.895 24.2281 14.2495 18.8695 16.4344C13.5109 18.6192 8.75262 21.3751 5.48167 24.1855C2.30756 26.9141 0.876405 29.4478 1.55809 31.1318C2.23978 32.8157 5.01689 33.6401 9.17867 33.3731C13.4741 33.0963 18.7882 31.7418 24.1468 29.5589C29.5054 27.376 34.2598 24.624 37.5346 21.8155C40.7087 19.0869 42.1399 16.5532 41.4601 14.8674C40.8636 13.3881 38.6617 12.5773 35.3288 12.5773V12.5695Z" stroke="white" stroke-width="0.5" mask="url(#path-1-outside-1)"/>
  <mask id="path-2-outside-2" maskUnits="userSpaceOnUse" x="0" y="11.1865" width="43" height="23" fill="black">
    <rect fill="white" y="11.1865" width="43" height="23"/>
    <path d="M35.3624 33.8136C34.8705 33.8136 34.3541 33.796 33.8131 33.761C29.479 33.4823 24.13 32.118 18.7249 29.9195C13.3198 27.721 8.53641 24.9476 5.23061 22.1118C1.87252 19.2312 0.439422 16.6059 1.19857 14.7212C1.95579 12.8384 4.80068 11.9555 9.20454 12.2382C13.5387 12.5169 18.8876 13.8812 24.2927 16.0796C29.6978 18.2781 34.4812 21.0515 37.787 23.8873C41.1451 26.7699 42.5763 29.3932 41.8191 31.2779C41.1567 32.9307 38.8851 33.8136 35.3624 33.8136ZM7.69011 12.5695C4.35913 12.5695 2.1572 13.3803 1.56072 14.8596C0.880969 16.5513 2.31019 19.083 5.48624 21.8077C8.76105 24.6162 13.5154 27.3663 18.8741 29.5511C24.2327 31.7359 29.5467 33.0886 33.8422 33.3653C38.0039 33.6323 40.783 32.8157 41.4627 31.124C42.1425 29.4322 40.7133 26.9005 37.5392 24.1777C34.2643 21.3673 29.5099 18.6172 24.1513 16.4344C18.7927 14.2515 13.4767 12.895 9.18324 12.6202C8.66422 12.5929 8.16652 12.5786 7.69011 12.5773V12.5695Z"/>
  </mask>
  <path d="M35.3624 33.8136C34.8705 33.8136 34.3541 33.796 33.8131 33.761C29.479 33.4823 24.13 32.118 18.7249 29.9195C13.3198 27.721 8.53641 24.9476 5.23061 22.1118C1.87252 19.2312 0.439422 16.6059 1.19857 14.7212C1.95579 12.8384 4.80068 11.9555 9.20454 12.2382C13.5387 12.5169 18.8876 13.8812 24.2927 16.0796C29.6978 18.2781 34.4812 21.0515 37.787 23.8873C41.1451 26.7699 42.5763 29.3932 41.8191 31.2779C41.1567 32.9307 38.8851 33.8136 35.3624 33.8136ZM7.69011 12.5695C4.35913 12.5695 2.1572 13.3803 1.56072 14.8596C0.880969 16.5513 2.31019 19.083 5.48624 21.8077C8.76105 24.6162 13.5154 27.3663 18.8741 29.5511C24.2327 31.7359 29.5467 33.0886 33.8422 33.3653C38.0039 33.6323 40.783 32.8157 41.4627 31.124C42.1425 29.4322 40.7133 26.9005 37.5392 24.1777C34.2643 21.3673 29.5099 18.6172 24.1513 16.4344C18.7927 14.2515 13.4767 12.895 9.18324 12.6202C8.66422 12.5929 8.16652 12.5786 7.69011 12.5773V12.5695Z" fill="white"/>
  <path d="M35.3624 33.8136C34.8705 33.8136 34.3541 33.796 33.8131 33.761C29.479 33.4823 24.13 32.118 18.7249 29.9195C13.3198 27.721 8.53641 24.9476 5.23061 22.1118C1.87252 19.2312 0.439422 16.6059 1.19857 14.7212C1.95579 12.8384 4.80068 11.9555 9.20454 12.2382C13.5387 12.5169 18.8876 13.8812 24.2927 16.0796C29.6978 18.2781 34.4812 21.0515 37.787 23.8873C41.1451 26.7699 42.5763 29.3932 41.8191 31.2779C41.1567 32.9307 38.8851 33.8136 35.3624 33.8136ZM7.69011 12.5695C4.35913 12.5695 2.1572 13.3803 1.56072 14.8596C0.880969 16.5513 2.31019 19.083 5.48624 21.8077C8.76105 24.6162 13.5154 27.3663 18.8741 29.5511C24.2327 31.7359 29.5467 33.0886 33.8422 33.3653C38.0039 33.6323 40.783 32.8157 41.4627 31.124C42.1425 29.4322 40.7133 26.9005 37.5392 24.1777C34.2643 21.3673 29.5099 18.6172 24.1513 16.4344C18.7927 14.2515 13.4767 12.895 9.18324 12.6202C8.66422 12.5929 8.16652 12.5786 7.69011 12.5773V12.5695Z" stroke="white" stroke-width="0.5" mask="url(#path-2-outside-2)"/>
  <mask id="path-3-outside-3" maskUnits="userSpaceOnUse" x="13.4238" y="0" width="16" height="46" fill="black">
    <rect fill="white" x="13.4238" width="16" height="46"/>
    <path d="M21.5076 45C19.5756 45 17.7813 42.6842 16.4513 38.4785C15.1442 34.3408 14.4238 28.8439 14.4238 23.001C14.4238 17.158 15.1442 11.6592 16.4513 7.52154C17.7889 3.31579 19.5756 1 21.5076 1C23.4395 1 25.2339 3.31579 26.5639 7.52154C27.8728 11.6592 28.5933 17.1561 28.5933 23.001C28.5933 28.8459 27.8728 34.3427 26.5639 38.4785C25.2339 42.6842 23.4376 45 21.5076 45ZM21.5076 1.38888C19.7877 1.38888 18.0679 3.66773 16.8143 7.64015C15.5187 11.7409 14.806 17.195 14.806 23.001C14.806 28.807 15.5187 34.261 16.8143 38.3618C18.0717 42.3342 19.782 44.6131 21.5076 44.6131C23.2331 44.6131 24.9472 42.3342 26.2008 38.3618C27.4964 34.263 28.2111 28.807 28.2111 23.001C28.2111 17.195 27.4964 11.7409 26.2008 7.64015C24.9434 3.66773 23.2331 1.39082 21.5076 1.39082V1.38888Z"/>
  </mask>
  <path d="M21.5076 45C19.5756 45 17.7813 42.6842 16.4513 38.4785C15.1442 34.3408 14.4238 28.8439 14.4238 23.001C14.4238 17.158 15.1442 11.6592 16.4513 7.52154C17.7889 3.31579 19.5756 1 21.5076 1C23.4395 1 25.2339 3.31579 26.5639 7.52154C27.8728 11.6592 28.5933 17.1561 28.5933 23.001C28.5933 28.8459 27.8728 34.3427 26.5639 38.4785C25.2339 42.6842 23.4376 45 21.5076 45ZM21.5076 1.38888C19.7877 1.38888 18.0679 3.66773 16.8143 7.64015C15.5187 11.7409 14.806 17.195 14.806 23.001C14.806 28.807 15.5187 34.261 16.8143 38.3618C18.0717 42.3342 19.782 44.6131 21.5076 44.6131C23.2331 44.6131 24.9472 42.3342 26.2008 38.3618C27.4964 34.263 28.2111 28.807 28.2111 23.001C28.2111 17.195 27.4964 11.7409 26.2008 7.64015C24.9434 3.66773 23.2331 1.39082 21.5076 1.39082V1.38888Z" fill="white"/>
  <path d="M21.5076 45C19.5756 45 17.7813 42.6842 16.4513 38.4785C15.1442 34.3408 14.4238 28.8439 14.4238 23.001C14.4238 17.158 15.1442 11.6592 16.4513 7.52154C17.7889 3.31579 19.5756 1 21.5076 1C23.4395 1 25.2339 3.31579 26.5639 7.52154C27.8728 11.6592 28.5933 17.1561 28.5933 23.001C28.5933 28.8459 27.8728 34.3427 26.5639 38.4785C25.2339 42.6842 23.4376 45 21.5076 45ZM21.5076 1.38888C19.7877 1.38888 18.0679 3.66773 16.8143 7.64015C15.5187 11.7409 14.806 17.195 14.806 23.001C14.806 28.807 15.5187 34.261 16.8143 38.3618C18.0717 42.3342 19.782 44.6131 21.5076 44.6131C23.2331 44.6131 24.9472 42.3342 26.2008 38.3618C27.4964 34.263 28.2111 28.807 28.2111 23.001C28.2111 17.195 27.4964 11.7409 26.2008 7.64015C24.9434 3.66773 23.2331 1.39082 21.5076 1.39082V1.38888Z" stroke="white" stroke-width="0.5" mask="url(#path-3-outside-3)"/>
</svg>
