<svg width="164" height="20" viewBox="0 0 164 20" fill="none" xmlns="http://www.w3.org/2000/svg">
<path fill-rule="evenodd" clip-rule="evenodd" d="M58.4959 0H62.0752V16.0412H76.1531L73.2248 19.2265H58.4959V0ZM13.866 11.4739H6.09323V11.472C6.04265 11.4734 5.99206 11.4739 5.94099 11.4739C2.82812 11.4739 0.304493 8.90525 0.304493 5.73672C0.304493 2.56866 2.82812 0 5.94099 0C5.99206 0 6.04265 0.000479607 6.09323 0.0019216V0H19.4986L15.5383 3.7213H5.93665C4.84491 3.7213 3.96034 4.6235 3.96034 5.73672C3.96034 6.85041 4.84491 7.75262 5.93665 7.75262H14.3189V7.77136C17.2178 8.00785 19.4982 10.4775 19.4982 13.4898C19.4982 16.6579 16.9745 19.2265 13.8617 19.2265C13.708 19.2265 13.5557 19.2203 13.4049 19.2078V19.2265H0L4.26531 15.5052H13.866C14.9577 15.5052 15.8428 14.603 15.8428 13.4898C15.8428 12.3761 14.9577 11.4739 13.866 11.4739ZM32.5996 0.00335913V0H45.3955V0.00335913C47.2094 0.0821879 48.6659 1.56503 48.7435 3.41126H48.7468V15.5052H48.7435C48.7457 15.557 48.7468 15.6087 48.7468 15.6605C48.7468 17.5783 47.2595 19.1419 45.3955 19.2232V19.2265H32.5991V19.2232C30.735 19.1419 29.2482 17.5779 29.2482 15.6605C29.2481 15.6087 29.249 15.557 29.2511 15.5052H29.2482V3.41126H29.2511C29.3287 1.56503 30.7856 0.0821879 32.5996 0.00335913ZM34.9989 3.4132C33.8647 3.4627 32.9546 4.39567 32.906 5.55695H32.904V13.1644H32.906C32.9047 13.1969 32.904 13.2294 32.904 13.262C32.904 14.4684 33.8334 15.4519 34.9984 15.5033V15.5052H42.9962V15.5033C44.1611 15.4519 45.0905 14.4684 45.0905 13.262C45.0905 13.2293 45.09 13.1966 45.0886 13.1644H45.0905V5.55695H45.0886C45.0404 4.39567 44.1298 3.4627 42.9962 3.4132V3.41126H34.9984V3.4132H34.9989ZM89.4709 5.27191V8.99321H101.657V5.27191C101.657 4.07313 100.703 3.10124 99.5249 3.10124H91.6033C90.4258 3.10124 89.4709 4.07313 89.4709 5.27191ZM101.657 19.2265V11.7839H89.4709V19.2265H85.815V3.7213H85.8179C85.8159 3.66957 85.8149 3.61781 85.815 3.56604C85.815 1.59677 87.3833 0 89.3186 0C89.3697 0 89.4203 0.000955811 89.4709 0.00335913V0H101.962V0.00335913C103.827 0.0845912 105.314 1.64868 105.314 3.56604C105.314 3.61781 105.312 3.66958 105.31 3.7213H105.314V19.2265H101.657ZM147.967 5.27191V8.99321H160.154V5.27191C160.154 4.07313 159.199 3.10124 158.021 3.10124H150.1C148.922 3.10124 147.967 4.07313 147.967 5.27191ZM160.154 19.2265V11.7839H147.967V19.2265H144.311V3.7213H144.314C144.312 3.66958 144.311 3.61781 144.311 3.56604C144.311 1.59677 145.88 0 147.815 0C147.866 0 147.916 0.000955811 147.967 0.00335913V0H160.458V0.00335913C162.323 0.0845912 163.81 1.64868 163.81 3.56604C163.81 3.61781 163.808 3.66958 163.806 3.7213H163.81V19.2265H160.154ZM130.906 14.5727V0H134.561V19.2265H130.906V19.1943L118.719 4.96189V19.2265H115.063V0H118.719L130.906 14.5727Z" fill="white"/>
</svg>
