<svg width="44" height="25" viewBox="0 0 44 25" fill="none" xmlns="http://www.w3.org/2000/svg">
<path d="M35.0704 7.23443C33.9138 7.23443 32.8034 7.46337 31.7855 7.87546L30.5363 5.26557V0.915751H35.4406C36.1346 0.915751 36.6435 1.4652 36.6435 2.10623C36.6435 2.79304 36.0883 3.2967 35.4406 3.2967H34.8391C34.5615 3.2967 34.3302 3.52564 34.3302 3.80037C34.3302 4.07509 34.5615 4.30403 34.8391 4.30403H35.4406C36.6435 4.30403 37.6151 3.34249 37.6151 2.15201C37.6151 0.961539 36.6435 0 35.4406 0H30.0736C29.796 0 29.5647 0.228938 29.5647 0.503663V4.99084H14.8517L13.4175 2.88461H16.3785C16.6562 2.88461 16.8875 2.65568 16.8875 2.38095C16.8875 2.10623 16.6562 1.87729 16.3785 1.87729H10.2713C9.99369 1.87729 9.76236 2.10623 9.76236 2.38095C9.76236 2.65568 9.99369 2.88461 10.2713 2.88461H12.2145L13.9727 5.44872L12.5846 8.1044C11.4742 7.60073 10.225 7.32601 8.92955 7.32601C4.02524 7.32601 0 11.2637 0 16.163C0 21.0165 3.97897 25 8.92955 25C13.6951 25 17.5815 21.2912 17.8128 16.6667H19.9411C20.0336 17.033 20.2187 17.3535 20.4963 17.6282C20.9127 18.0403 21.4217 18.2234 21.9769 18.2234C22.5321 18.2234 23.041 17.9945 23.4574 17.6282C24.1977 16.8956 24.244 15.7051 23.5962 14.881L29.9348 6.41026L30.8601 8.37912C28.0379 9.84432 26.1409 12.8205 26.1409 16.163C26.1409 21.0165 30.1199 25 35.0704 25C39.9748 25 44 21.0623 44 16.163C44 11.2179 40.021 7.23443 35.0704 7.23443ZM29.102 5.86081L22.8559 14.1941C22.5783 14.0568 22.3007 14.011 22.0231 14.011C21.7455 14.011 21.4679 14.0568 21.1903 14.1941L15.4995 5.86081H29.102ZM14.6204 6.27289L20.4501 14.7894C20.2187 15.0183 20.0799 15.3388 20.0336 15.6136H17.8591C17.674 12.5916 15.9621 9.9359 13.4637 8.4707L14.6204 6.27289ZM16.8875 15.6136H9.76236L13.0011 9.34066C15.2219 10.6227 16.7024 12.9121 16.8875 15.6136ZM8.97581 23.9469C4.58044 23.9469 1.01788 20.4212 1.01788 16.0714C1.01788 11.7216 4.58044 8.19597 8.97581 8.19597C10.1325 8.19597 11.1966 8.42491 12.1682 8.88278L8.55941 15.8425C8.46688 15.9799 8.46688 16.163 8.55941 16.3004C8.65195 16.4377 8.79075 16.5293 8.97581 16.5293H16.8875C16.6562 20.6502 13.1861 23.9469 8.97581 23.9469ZM22.8097 16.8498C22.3933 17.2619 21.653 17.2619 21.2366 16.8498C20.8202 16.4377 20.8202 15.7051 21.2366 15.293C21.4679 15.0641 21.7455 14.9725 22.0231 14.9725C22.3007 14.9725 22.5783 15.0641 22.8097 15.293C23.2261 15.7051 23.2261 16.4377 22.8097 16.8498ZM35.0704 23.9469C30.6751 23.9469 27.1125 20.4212 27.1125 16.0714C27.1125 13.0952 28.8244 10.4853 31.2766 9.15751L34.6078 16.2546C34.7003 16.4377 34.8854 16.5293 35.0704 16.5293C35.1167 16.5293 35.2093 16.5293 35.2555 16.4835C35.4869 16.3919 35.6257 16.0714 35.4869 15.8425L32.2019 8.74542C33.081 8.37912 34.0526 8.19597 35.0704 8.19597C39.4658 8.19597 43.0284 11.7216 43.0284 16.0714C43.0284 20.4212 39.4658 23.9469 35.0704 23.9469Z" fill="#00FFAD"/>
</svg>
