<svg width="16" height="16" viewBox="0 0 16 16" fill="none" xmlns="http://www.w3.org/2000/svg">
<path fill-rule="evenodd" clip-rule="evenodd" d="M15.99 4.55955V13.0064C15.99 13.5574 15.542 14.0058 14.991 14.0058H11.9925C11.7165 14.0058 11.493 13.7818 11.493 13.5063C11.493 13.2303 11.7165 13.0064 11.9925 13.0064H14.991V5.00939H11.493C11.217 5.00939 10.993 4.78597 10.993 4.50996V0.986852H6.00001C5.72401 0.986852 5.49651 0.787478 5.49651 0.511961C5.49651 0.235944 5.72001 0.0120239 5.99601 0.0120239H11.493C11.5035 0.0120239 11.5125 0.0175343 11.523 0.0180352C11.569 0.0210408 11.6135 0.0300577 11.657 0.0450859C11.672 0.0505962 11.6875 0.0546038 11.702 0.061116C11.7545 0.085662 11.804 0.115718 11.846 0.158298L15.7895 4.10219C15.8055 4.11321 15.813 4.13275 15.8275 4.14527C15.842 4.1588 15.853 4.17433 15.866 4.18936C15.9435 4.27752 16 4.38372 16 4.50996C16 4.52749 15.992 4.54252 15.99 4.55955ZM11.9925 1.71822V4.01002H14.284L11.9925 1.71822ZM6.02601 2.01728C6.07201 2.02029 6.11651 2.02881 6.16001 2.04433C6.17551 2.04984 6.19051 2.05335 6.20551 2.06036C6.25751 2.08441 6.30701 2.11497 6.34951 2.15755L10.2925 6.10144C10.3085 6.11246 10.3165 6.132 10.331 6.14502C10.3455 6.15805 10.3565 6.17358 10.3695 6.1886C10.4465 6.27677 10.5035 6.38297 10.5035 6.50921C10.5035 6.52674 10.495 6.54127 10.4935 6.5588V15.0056C10.4935 15.5567 10.045 16.005 9.49401 16.005H0.999012C0.448012 16.005 -0.000488281 15.5567 -0.000488281 15.0056V3.01065C-0.000488281 2.45961 0.448012 2.01127 0.999012 2.01127H5.99601C6.00701 2.01127 6.01551 2.01678 6.02601 2.01728ZM6.49601 3.71747V6.00927H8.78751L6.49601 3.71747ZM5.49651 6.50921V2.99061H1.00001L0.999012 15.0056H9.49401V7.00914H5.99601C5.72001 7.00914 5.49651 6.78472 5.49651 6.50921Z" fill="#00C38D"/>
</svg>
