<svg xmlns="http://www.w3.org/2000/svg" width="5" height="10" viewBox="0 0 5 10">
  <path fill="#67B600" fill-rule="evenodd" d="M7.49604995,9.44778182 C7.49897222,9.23848312 7.51576739,9.0752936 7.54643546,8.95821326 C7.62569734,8.65561808 7.73526361,8.37704258 7.87513753,8.12247839 C8.01501145,7.86791419 8.17586405,7.63016441 8.35770015,7.4092219 C8.53953625,7.18827939 8.70971363,6.96974171 8.86823741,6.75360231 C9.02676119,6.5374629 9.15963942,6.31892522 9.26687609,6.09798271 C9.37411277,5.8770402 9.4277303,5.6368889 9.4277303,5.37752161 C9.4277303,4.99327378 9.31350164,4.6642665 9.08504091,4.39048991 C8.85658017,4.11671333 8.51855659,3.97982709 8.07096004,3.97982709 C7.76323741,3.97982709 7.47183778,4.05427399 7.1967524,4.20317003 C7.08126928,4.26567782 6.94144356,4.36976917 6.77727522,4.51544409 C6.59258922,4.67928808 6.31338209,4.67509719 6.13371591,4.50576369 C5.96263534,4.34452204 5.95465932,4.07512165 6.11590097,3.90404108 C6.12383955,3.89561809 6.13211837,3.8875224 6.14073544,3.87979486 C6.41994353,3.62819478 6.65538816,3.44780206 6.84706934,3.33861671 C7.24337879,3.11287111 7.69796222,3 8.21083326,3 C8.9195278,3 9.48600869,3.2041286 9.91029292,3.61239193 C10.3345771,4.02065526 10.5467161,4.58501081 10.5467161,5.3054755 C10.5467161,5.62247997 10.4907674,5.91066153 10.3788682,6.17002882 C10.2669691,6.42939611 10.1294285,6.67435043 9.96624221,6.90489914 C9.80305597,7.13544784 9.63054738,7.36359157 9.44871128,7.58933718 C9.26687519,7.81508278 9.099029,8.04802954 8.94516768,8.28818444 C8.79130637,8.52833934 8.67241532,8.78530122 8.58849096,9.05907781 C8.5564541,9.16358792 8.53511817,9.30825517 8.52448317,9.49307955 C8.50893161,9.76307523 8.28545395,9.9740634 8.01501075,9.9740634 C7.72835522,9.9740634 7.495975,9.74168318 7.495975,9.45502765 C7.495975,9.45261217 7.49599186,9.45019672 7.49604995,9.44778182 Z M8.0429854,13 C7.80986219,13 7.61404164,12.915947 7.45551786,12.7478386 C7.29699408,12.5797302 7.21773338,12.3659955 7.21773338,12.1066282 C7.21773338,11.8280486 7.29699408,11.6047079 7.45551786,11.4365994 C7.61404164,11.268491 7.80986219,11.184438 8.0429854,11.184438 C8.2761086,11.184438 8.47426035,11.268491 8.63744659,11.4365994 C8.80063284,11.6047079 8.88222473,11.8280486 8.88222473,12.1066282 C8.88222473,12.3659955 8.80063284,12.5797302 8.63744659,12.7478386 C8.47426035,12.915947 8.2761086,13 8.0429854,13 Z" transform="translate(-6 -3)"/>
</svg>
