<svg width="20" height="19" viewBox="0 0 20 19" fill="none" xmlns="http://www.w3.org/2000/svg">
<path d="M11.4266 1.77254C10.9776 0.390579 9.02244 0.390571 8.57342 1.77254L7.27933 5.75532C7.21239 5.96133 7.02042 6.10081 6.8038 6.10081H2.61606C1.16298 6.10081 0.558809 7.96023 1.73438 8.81434L5.12234 11.2758C5.29758 11.4032 5.37091 11.6288 5.30397 11.8348L4.00989 15.8176C3.56086 17.1996 5.14258 18.3488 6.31815 17.4947L9.70611 15.0332C9.88135 14.9059 10.1186 14.9059 10.2939 15.0332L13.6818 17.4947C14.8574 18.3488 16.4391 17.1996 15.9901 15.8176L14.696 11.8348C14.6291 11.6288 14.7024 11.4032 14.8777 11.2758L18.2656 8.81434C19.4412 7.96024 18.837 6.10081 17.3839 6.10081H13.1962C12.9796 6.10081 12.7876 5.96133 12.7207 5.75532L11.4266 1.77254Z" stroke="#00C38D"/>
</svg>
