<svg width="16" height="14" viewBox="0 0 16 14" fill="none" xmlns="http://www.w3.org/2000/svg">
<path d="M15.922 13.3709L8.32425 0.211439C8.25702 0.0948645 8.13265 0.0231934 7.9982 0.0231934C7.86375 0.0231934 7.73933 0.0949081 7.67211 0.211439L0.0504508 13.412C-0.0168169 13.5286 -0.0168169 13.672 0.0504508 13.7886C0.117675 13.9052 0.242053 13.9769 0.376544 13.9769H15.6197C15.6209 13.9769 15.6222 13.9769 15.6234 13.9769C15.8314 13.9769 16 13.8085 16 13.6002C16 13.5138 15.9708 13.4345 15.922 13.3709ZM1.02882 13.2237L7.9982 1.1528L14.9675 13.2237H1.02882Z" fill="#E70000"/>
<path d="M7.62109 4.96394V10.3651C7.62109 10.5732 7.78968 10.7417 7.99767 10.7417C8.20562 10.7417 8.3742 10.5733 8.3742 10.3651V4.96394C8.3742 4.75616 8.20562 4.5874 7.99767 4.5874C7.78968 4.58745 7.62109 4.7562 7.62109 4.96394Z" fill="#E70000"/>
<path d="M7.99881 11.1802C7.74064 11.1802 7.53125 11.3894 7.53125 11.6476C7.53125 11.9058 7.74064 12.1153 7.99881 12.1153C8.25694 12.1153 8.46637 11.9057 8.46637 11.6476C8.46637 11.3894 8.25698 11.1802 7.99881 11.1802Z" fill="#E70000"/>
</svg>
