<svg width="43" height="46" fill="none" xmlns="http://www.w3.org/2000/svg">
  <path d="M9.212 33.886c4.351-.28 9.721-1.649 15.127-3.85 5.406-2.203 10.21-4.983 13.529-7.83 1.685-1.445 2.895-2.833 3.588-4.103.693-1.27.877-2.438.478-3.429-.399-.989-1.339-1.699-2.715-2.126-1.376-.427-3.205-.576-5.415-.435l.008.125-.008-.125c-4.355.28-9.721 1.649-15.127 3.853-5.406 2.204-10.21 4.981-13.528 7.828C3.463 25.241 2.254 26.63 1.56 27.9c-.693 1.27-.877 2.437-.48 3.427h.001c.35.868 1.117 1.521 2.23 1.956 1.11.435 2.576.657 4.346.657.493 0 1.013-.018 1.554-.053zm0 0l-.008-.125m.008.125l-.008-.125m0 0c-.539.035-1.056.052-1.546.052-3.522 0-5.794-.882-6.46-2.533-.757-1.885.674-4.508 4.032-7.39 3.306-2.837 8.097-5.608 13.494-7.809 5.398-2.2 10.75-3.564 15.088-3.843 4.404-.282 7.247.6 8.006 2.483.76 1.885-.674 4.51-4.032 7.39-3.306 2.837-8.097 5.61-13.494 7.808-5.397 2.199-10.754 3.563-15.088 3.842zm24.642-21.016c.47-.03.924-.047 1.358-.05v.007h.125c1.658 0 3.025.202 4.048.583 1.023.38 1.687.934 1.967 1.629.32.792.151 1.804-.51 2.975-.66 1.168-1.8 2.473-3.38 3.832-3.263 2.797-8.004 5.543-13.354 7.722-5.35 2.18-10.651 3.53-14.93 3.805-2.072.133-3.79-.006-5.071-.384-1.283-.378-2.105-.988-2.425-1.78-.32-.79-.152-1.802.509-2.972.66-1.168 1.8-2.473 3.38-3.832 3.258-2.799 8.004-5.549 13.354-7.73s10.65-3.531 14.929-3.805z" stroke-width=".25"/>
  <path d="M9.213 12.113c4.35.28 9.713 1.649 15.127 3.85 5.413 2.203 10.21 4.982 13.528 7.83 1.686 1.446 2.895 2.834 3.588 4.104.693 1.27.877 2.437.48 3.427-.349.869-1.115 1.522-2.227 1.958-1.11.435-2.577.657-4.347.657-.495 0-1.014-.018-1.557-.053-4.351-.28-9.714-1.649-15.127-3.85-5.414-2.203-10.21-4.983-13.529-7.83-1.685-1.445-2.895-2.833-3.588-4.103-.693-1.27-.877-2.438-.478-3.429l8.13-2.56zm0 0c-2.21-.141-4.04.008-5.416.435m5.416-.435l-5.416.435m0 0c-1.376.427-2.316 1.137-2.714 2.126l2.714-2.126zm5.408-.31zm28.253 12.035l.081-.095-.081.095c1.58 1.356 2.72 2.658 3.38 3.826.66 1.17.828 2.183.509 2.978-.32.795-1.14 1.405-2.424 1.782-1.28.377-3 .514-5.073.381-4.278-.275-9.579-1.623-14.929-3.805-5.35-2.181-10.092-4.925-13.353-7.722-1.582-1.357-2.722-2.66-3.382-3.828-.66-1.17-.829-2.184-.51-2.979.28-.695.944-1.248 1.968-1.63.996-.37 2.32-.571 3.921-.581v.007h.125c.474.002.97.016 1.486.043 4.276.274 9.578 1.626 14.928 3.805 5.35 2.18 10.092 4.923 13.354 7.723z"  stroke-width=".25"/>
  <path d="M16.332 38.516c.667 2.11 1.454 3.756 2.323 4.877.868 1.12 1.832 1.732 2.853 1.732 1.02 0 1.983-.612 2.852-1.732.869-1.12 1.656-2.767 2.323-4.877 1.314-4.151 2.035-9.661 2.035-15.515 0-5.854-.721-11.364-2.035-15.517-.667-2.11-1.454-3.756-2.323-4.877-.868-1.12-1.832-1.732-2.852-1.732-1.021 0-1.983.612-2.85 1.732-.868 1.12-1.655 2.767-2.326 4.877C15.02 11.637 14.3 17.149 14.3 23s.721 11.362 2.033 15.515zm.602-30.838c.624-1.979 1.362-3.527 2.152-4.578.765-1.017 1.562-1.548 2.338-1.584h.084c.804 0 1.63.532 2.422 1.585.789 1.05 1.525 2.598 2.152 4.577 1.29 4.085 2.004 9.526 2.004 15.323 0 5.797-.714 11.24-2.004 15.323-.625 1.979-1.361 3.527-2.15 4.578-.792 1.054-1.62 1.586-2.424 1.586-.805 0-1.631-.532-2.423-1.586-.788-1.05-1.525-2.599-2.151-4.578-1.291-4.085-2.003-9.526-2.003-15.323 0-5.797.712-11.238 2.003-15.323z" stroke-width=".25"/>
</svg>
