<svg width="42" height="34" fill="none" xmlns="http://www.w3.org/2000/svg">
  <path d="M19.535 14.896l.253.253.32-.157 15.72-7.7a.487.487 0 0 1 .658.219l2.915 5.95c.12.244.02.533-.223.652l-2.823 1.383a.477.477 0 0 1-.646-.213l-1.14-2.327-.22-.449-.449.22-11.767 5.765-.357.175.09.387c.922 3.94-.987 8.17-4.844 10.06-4.479 2.194-9.847.396-11.996-3.99-2.15-4.39-.28-9.734 4.198-11.928a8.975 8.975 0 0 1 10.311 1.7zm-4.287 10.596c2.42-1.186 3.45-4.093 2.275-6.49-1.175-2.399-4.103-3.37-6.524-2.183-2.421 1.186-3.451 4.095-2.276 6.494 1.175 2.398 4.104 3.365 6.525 2.179z" />
</svg>
